<svg xmlns="http://www.w3.org/2000/svg" width="53.322" height="53.322" viewBox="0 0 53.322 53.322">
  <path id="Icon_awesome-exclamation-circle" data-name="Icon awesome-exclamation-circle" d="M53.884,27.223A26.661,26.661,0,1,1,27.223.563,26.659,26.659,0,0,1,53.884,27.223ZM27.223,32.6a4.945,4.945,0,1,0,4.945,4.945A4.945,4.945,0,0,0,27.223,32.6ZM22.528,14.823l.8,14.62a1.29,1.29,0,0,0,1.288,1.22h5.219a1.29,1.29,0,0,0,1.288-1.22l.8-14.62a1.29,1.29,0,0,0-1.288-1.36H23.816A1.29,1.29,0,0,0,22.528,14.823Z" transform="translate(-0.563 -0.563)" fill="#00406e"/>
</svg>
