<svg xmlns="http://www.w3.org/2000/svg" width="48.884" height="64.176" viewBox="0 0 48.884 64.176">
  <g id="privacy" transform="translate(-61)">
    <path id="路径_1" data-name="路径 1" d="M351,8.787V20.22h11.433Z" transform="translate(-253.65 -7.686)" fill="#00406e"/>
    <path id="路径_2" data-name="路径 2" d="M185.524,192h-7.74A9.92,9.92,0,0,1,171,196.839v9.024a15.606,15.606,0,0,0,10.654,14.873,15.606,15.606,0,0,0,10.654-14.873v-9.024A9.92,9.92,0,0,1,185.524,192Zm2.777,12.2-7.09,7.09a1.88,1.88,0,0,1-2.659,0l-3.545-3.545a1.88,1.88,0,0,1,2.659-2.659l2.216,2.216,5.761-5.761A1.88,1.88,0,1,1,188.3,204.2Z" transform="translate(-96.212 -167.934)" fill="#00406e"/>
    <path id="路径_3" data-name="路径 3" d="M95.47,16.295a1.88,1.88,0,0,1-1.88-1.88V0h-25.7A6.9,6.9,0,0,0,61,6.894V57.282a6.9,6.9,0,0,0,6.894,6.894h35.1a6.9,6.9,0,0,0,6.894-6.894V16.295Zm4.387,21.634A19.468,19.468,0,0,1,85.982,56.576a1.879,1.879,0,0,1-1.08,0A19.468,19.468,0,0,1,71.028,37.929V27.2a1.88,1.88,0,0,1,1.88-1.88,6.2,6.2,0,0,0,5.574-3.445l.265-.529a1.88,1.88,0,0,1,1.682-1.039H90.456a1.88,1.88,0,0,1,1.682,1.039l.265.529a6.2,6.2,0,0,0,5.574,3.445,1.88,1.88,0,0,1,1.88,1.88Z" transform="translate(0)" fill="#00406e"/>
  </g>
</svg>
