<svg xmlns="http://www.w3.org/2000/svg" width="48.412" height="48.424" viewBox="0 0 48.412 48.424">
  <path id="Icon_ionic-ios-settings" data-name="Icon ionic-ios-settings" d="M48.915,28.706a6.23,6.23,0,0,1,4-5.812,24.693,24.693,0,0,0-2.988-7.2,6.313,6.313,0,0,1-2.534.542A6.216,6.216,0,0,1,41.7,7.488,24.618,24.618,0,0,0,34.518,4.5a6.224,6.224,0,0,1-11.624,0,24.693,24.693,0,0,0-7.2,2.988,6.216,6.216,0,0,1-5.686,8.749A6.108,6.108,0,0,1,7.475,15.7,25.239,25.239,0,0,0,4.5,22.907,6.228,6.228,0,0,1,4.513,34.53a24.693,24.693,0,0,0,2.988,7.2,6.218,6.218,0,0,1,8.207,8.207,24.837,24.837,0,0,0,7.2,2.988,6.213,6.213,0,0,1,11.6,0,24.693,24.693,0,0,0,7.2-2.988,6.225,6.225,0,0,1,8.207-8.207,24.837,24.837,0,0,0,2.988-7.2A6.259,6.259,0,0,1,48.915,28.706Zm-20.1,10.073A10.086,10.086,0,1,1,38.905,28.693,10.083,10.083,0,0,1,28.819,38.779Z" transform="translate(-4.5 -4.5)" fill="#00406e"/>
</svg>
